<?xml version="1.0" encoding="UTF-8"?>
<svg version="1.1" xmlns="http://www.w3.org/2000/svg" width="512" height="512">
<path d="M0 0 C-0.56959153 3.62613199 -1.92374534 5.25517741 -4.5625 7.75 C-5.20316406 8.36359375 -5.84382812 8.9771875 -6.50390625 9.609375 C-6.99761719 10.06828125 -7.49132812 10.5271875 -8 11 C-6.31086973 9.94009367 -4.62378609 8.87692554 -2.9375 7.8125 C-1.93460938 7.17957031 -0.93171875 6.54664063 0.1015625 5.89453125 C2.4720732 4.34507345 4.70210712 2.73267352 6.9375 1 C10 -1 10 -1 12.19140625 -0.625 C13.08666016 -0.315625 13.08666016 -0.315625 14 0 C12.55218207 3.44428265 10.72305391 5.36130962 7.875 7.75 C6.78832031 8.67039063 6.78832031 8.67039063 5.6796875 9.609375 C5.12539062 10.06828125 4.57109375 10.5271875 4 11 C10.33020123 7.59305894 10.33020123 7.59305894 16.3125 3.625 C19 2 19 2 21.375 2.25 C21.91125 2.4975 22.4475 2.745 23 3 C23 3.66 23 4.32 23 5 C25.475 5.495 25.475 5.495 28 6 C27.43404872 9.26722147 26.61909146 10.70870211 24.05859375 12.796875 C23.47529297 13.28027344 22.89199219 13.76367188 22.29101562 14.26171875 C21.67935547 14.75285156 21.06769531 15.24398437 20.4375 15.75 C19.82197266 16.25660156 19.20644531 16.76320312 18.57226562 17.28515625 C17.05505562 18.53185595 15.52841574 19.7670638 14 21 C21.83886275 16.57459194 29.42765719 11.85332824 36.94702148 6.90893555 C49.01586093 -1 49.01586093 -1 54 -1 C53.67 0.65 53.34 2.3 53 4 C54.051875 3.505 54.051875 3.505 55.125 3 C58.26003116 1.90955438 60.70563182 1.84677357 64 2 C64.99 3.98 64.99 3.98 66 6 C64.90236328 6.72477539 63.80472656 7.44955078 62.67382812 8.19628906 C58.51802126 10.94229912 54.36658992 13.69486613 50.21630859 16.44921875 C48.43522958 17.62998801 46.65304029 18.8090846 44.86962891 19.98632812 C30.72376549 29.32658273 16.77900105 38.82949765 4 50 C11.92165242 45.5449925 19.49492541 40.73685764 27.02734375 35.6640625 C33.19155073 31.51592816 39.44041711 27.50068792 45.6953125 23.49121094 C48.18483311 21.88040671 50.65482287 20.24185655 53.125 18.6015625 C54.83308449 17.48399458 56.54141266 16.366799 58.25 15.25 C59.04825195 14.71197754 59.84650391 14.17395508 60.66894531 13.61962891 C61.42272461 13.13155762 62.17650391 12.64348633 62.953125 12.140625 C63.61473633 11.70266602 64.27634766 11.26470703 64.95800781 10.81347656 C67.6277611 9.74991631 69.28193156 10.23336531 72 11 C70.85005165 14.44984505 70.39322919 14.64331926 67.37109375 16.35546875 C66.59411133 16.80567383 65.81712891 17.25587891 65.01660156 17.71972656 C64.16549805 18.2040918 63.31439453 18.68845703 62.4375 19.1875 C50.27568301 26.27628148 38.64829395 34.10377174 27 42 C33.88623438 38.03762254 40.68391956 34.00468566 47.3125 29.625 C52.96453728 25.94274853 58.63108759 22.28764609 64.375 18.75 C64.99930908 18.35506348 65.62361816 17.96012695 66.2668457 17.55322266 C67.79825546 16.62139334 69.39578191 15.80000377 71 15 C72.485 15.495 72.485 15.495 74 16 C73.63271028 18.43000927 73.39988694 19.66609761 71.47900391 21.27001953 C70.81819824 21.63724121 70.15739258 22.00446289 69.4765625 22.3828125 C68.71561279 22.81907959 67.95466309 23.25534668 67.1706543 23.70483398 C66.33058838 24.17348877 65.49052246 24.64214355 64.625 25.125 C55.7544669 30.24959475 47.19093946 35.73360174 38.6875 41.4375 C38.10695862 41.82576965 37.52641724 42.21403931 36.92828369 42.61407471 C30.88790903 46.65574098 24.88201727 50.73065702 19 55 C26.71077334 50.67285715 34.1792391 46.01415327 41.625 41.25 C48.79060335 36.67294708 55.95943316 32.10298426 63.1875 27.625 C63.93531738 27.15481445 64.68313477 26.68462891 65.45361328 26.20019531 C70.65241197 23 70.65241197 23 74 23 C73.38461538 29.52307692 73.38461538 29.52307692 71.4375 31.9375 C70.963125 32.288125 70.48875 32.63875 70 33 C71.485 33.99 71.485 33.99 73 35 C72.71161787 38.43655377 72.2556656 39.74966077 69.75 42.203125 C68.8425 42.87859375 67.935 43.5540625 67 44.25 C66.0925 44.93578125 65.185 45.6215625 64.25 46.328125 C63.5075 46.87984375 62.765 47.4315625 62 48 C61.67 48.33 61.34 48.66 61 49 C61.99 49 62.98 49 64 49 C64 50.32 64 51.64 64 53 C62.11083984 54.59643555 62.11083984 54.59643555 59.4609375 56.13671875 C58.49406006 56.71019043 57.52718262 57.28366211 56.53100586 57.87451172 C55.48952393 58.47279785 54.44804199 59.07108398 53.375 59.6875 C51.25806031 60.93180185 49.142172 62.17789415 47.02734375 63.42578125 C45.99335449 64.03244629 44.95936523 64.63911133 43.89404297 65.26416016 C39.07570739 68.15418597 34.45525662 71.32233147 29.83984375 74.5234375 C26.62651045 76.19419402 24.5711692 76.30776792 21 76 C22.875 71.25 22.875 71.25 24 69 C23.278125 69.495 22.55625 69.99 21.8125 70.5 C18.85151341 72.07919285 17.28746971 72.28178312 14 72 C14.1875 70.21875 14.1875 70.21875 15 68 C17.125 66.28125 17.125 66.28125 20 64.5 C21.08796875 63.80390625 22.1759375 63.1078125 23.296875 62.390625 C23.89306641 62.00970703 24.48925781 61.62878906 25.10351562 61.23632812 C28.54499901 58.99280703 31.89606193 56.62163396 35.25 54.25 C35.95954834 53.74887695 36.66909668 53.24775391 37.40014648 52.73144531 C45.04449227 47.30271508 52.53252376 41.66844764 60 36 C51.06204045 40.57515424 42.76274841 45.9706405 34.36914062 51.45751953 C30.17937325 54.18535859 25.96818221 56.878869 21.75 59.5625 C20.95207031 60.07506348 20.15414062 60.58762695 19.33203125 61.11572266 C15.64819831 63.45432686 12.16188919 65.59328145 8 67 C7 66 7 66 6.9375 63.4375 C6.958125 62.633125 6.97875 61.82875 7 61 C4.525 61.495 4.525 61.495 2 62 C1.67 60.68 1.34 59.36 1 58 C-0.32 57.67 -1.64 57.34 -3 57 C-2.84036991 50.61479646 0.78124883 47.33991635 5 43 C2.24391568 44.26518526 0.19482541 45.60599438 -2 47.6875 C-5 50 -5 50 -7.375 49.8125 C-7.91125 49.544375 -8.4475 49.27625 -9 49 C-7.84600665 45.53801996 -7.00042192 44.98629619 -4.125 42.8828125 C-3.31192383 42.28154541 -2.49884766 41.68027832 -1.66113281 41.06079102 C-0.78295898 40.42197998 0.09521484 39.78316895 1 39.125 C2.81827681 37.78332215 4.63597422 36.44085878 6.453125 35.09765625 C7.83661133 34.07889404 7.83661133 34.07889404 9.24804688 33.03955078 C13.44988513 29.92544887 17.60196279 26.74772771 21.75 23.5625 C22.4821875 23.00127441 23.214375 22.44004883 23.96875 21.86181641 C25.64652262 20.57544278 27.32337733 19.28787208 29 18 C20.46517282 22.77048267 12.28096573 28.00089759 4.12011719 33.37963867 C-9.13219161 42.08900599 -9.13219161 42.08900599 -12.4375 41.75 C-12.953125 41.5025 -13.46875 41.255 -14 41 C-12.87548273 38.0280615 -11.77706209 35.66559313 -10 33 C-11.65 33.66 -13.3 34.32 -15 35 C-15.38218767 33.34385343 -15.71395102 31.67542976 -16 30 C-15.67 29.67 -15.34 29.34 -15 29 C-15.66 28.67 -16.32 28.34 -17 28 C-16.40072174 24.64404172 -15.15377564 22.62198774 -13 20 C-14.32 19.67 -15.64 19.34 -17 19 C-16.66924404 15.2514325 -15.91657919 13.90030196 -13.4375 10.9375 C-10.57428502 8.12314352 -10.57428502 8.12314352 -11 4 C-9.35546875 2.48046875 -9.35546875 2.48046875 -7.1875 1.1875 C-6.47980469 0.74792969 -5.77210938 0.30835938 -5.04296875 -0.14453125 C-3 -1 -3 -1 0 0 Z M31 15 C30.67 15.66 30.34 16.32 30 17 C30.99 16.67 31.98 16.34 33 16 C32.34 15.67 31.68 15.34 31 15 Z M37 18 C36.67 18.66 36.34 19.32 36 20 C36.99 19.67 37.98 19.34 39 19 C38.34 18.67 37.68 18.34 37 18 Z M-6 29 C-6.33 29.66 -6.66 30.32 -7 31 C-6.01 30.67 -5.02 30.34 -4 30 C-4.66 29.67 -5.32 29.34 -6 29 Z M9 38 C8.67 38.66 8.34 39.32 8 40 C8.99 39.67 9.98 39.34 11 39 C10.34 38.67 9.68 38.34 9 38 Z " fill="#000000" transform="translate(182,130)"/>
<path d="M0 0 C4.95 0 9.9 0 15 0 C15.33 21.12 15.66 42.24 16 64 C19.96 59.71 23.92 55.42 28 51 C30.68359068 48.12110757 33.36903173 45.24456855 36.0625 42.375 C36.69865234 41.69566406 37.33480469 41.01632812 37.99023438 40.31640625 C41.47290039 36.60302734 41.47290039 36.60302734 43 35 C43.46825195 34.44223877 43.93650391 33.88447754 44.41894531 33.30981445 C46.51770346 31.57111194 47.75098364 31.65270437 50.44921875 31.70703125 C51.29677734 31.71669922 52.14433594 31.72636719 53.01757812 31.73632812 C54.33918945 31.7740332 54.33918945 31.7740332 55.6875 31.8125 C56.58017578 31.82603516 57.47285156 31.83957031 58.39257812 31.85351562 C60.59569244 31.8888597 62.79743711 31.9407673 65 32 C61.10023279 36.66874537 57.04785356 41.09127809 52.7265625 45.37109375 C52.15795502 45.93828629 51.58934753 46.50547882 51.00350952 47.08985901 C49.21303764 48.87479913 47.41909516 50.65620256 45.625 52.4375 C44.39950677 53.65796939 43.17424428 54.87867053 41.94921875 56.09960938 C38.96880226 59.06908756 35.98527106 62.03540257 33 65 C34.19333193 68.26358995 35.42381191 70.83121685 37.65234375 73.49609375 C38.17594482 74.12990967 38.6995459 74.76372559 39.23901367 75.41674805 C39.79951416 76.08359619 40.36001465 76.75044434 40.9375 77.4375 C42.12072054 78.86902442 43.3029963 80.30133021 44.484375 81.734375 C45.07669922 82.45044922 45.66902344 83.16652344 46.27929688 83.90429688 C50.6191054 89.18989795 54.8013395 94.60215812 59 100 C59.47695313 100.61133789 59.95390625 101.22267578 60.4453125 101.85253906 C61.86234427 103.67024225 63.27561252 105.49079925 64.6875 107.3125 C65.12215576 107.87026123 65.55681152 108.42802246 66.00463867 109.00268555 C69 112.88447304 69 112.88447304 69 114 C52.48615768 116.34979574 52.48615768 116.34979574 47.10058594 112.71972656 C43.56425117 109.09321204 41.07440564 104.74906064 38.50976562 100.40966797 C35.79989162 96.08456183 32.55839919 92.16938626 29.375 88.1875 C28.19282427 86.68294133 27.01295823 85.1765636 25.8359375 83.66796875 C25.33626465 83.03141357 24.8365918 82.3948584 24.32177734 81.73901367 C23.15444687 80.20320005 22.07006598 78.60509897 21 77 C18.3094472 78.22007944 18.3094472 78.22007944 16 80 C15.84011509 82.51880517 15.74065775 85.01342266 15.68359375 87.53515625 C15.66281265 88.28840683 15.64203156 89.04165741 15.62062073 89.81773376 C15.55504575 92.2325599 15.49620379 94.64749798 15.4375 97.0625 C15.3943223 98.69597529 15.35070827 100.3294391 15.30664062 101.96289062 C15.19853203 105.97514718 15.09951886 109.98748424 15 114 C10.05 114 5.1 114 0 114 C0 76.38 0 38.76 0 0 Z " fill="#000000" transform="translate(294,272)"/>
<path d="M0 0 C7.33139119 5.48399698 11.22918686 13.14593431 13 22 C13 28.6 13 35.2 13 42 C-5.48 42 -23.96 42 -43 42 C-41.13442287 54.22726986 -41.13442287 54.22726986 -34 63.6328125 C-25.9769768 68.79468405 -17.29891484 69.02902123 -8 68 C-2.66905109 66.50733431 1.97105125 64.28159929 6.640625 61.33203125 C9 60 9 60 12 60 C12 65.28 12 70.56 12 76 C9.7725 76.804375 7.545 77.60875 5.25 78.4375 C4.55551758 78.68943115 3.86103516 78.9413623 3.14550781 79.20092773 C-8.94581964 83.54243293 -25.0796973 84.57824719 -36.95703125 79.12109375 C-37.63121094 78.75113281 -38.30539062 78.38117188 -39 78 C-40.051875 77.443125 -41.10375 76.88625 -42.1875 76.3125 C-50.82757528 69.2084381 -56.3307193 61.18574076 -58 50 C-58.90622128 34.92232221 -58.59252693 20.44096287 -49 8 C-37.49790269 -4.73603878 -15.1971123 -10.1615612 0 0 Z M-38.62109375 15.8984375 C-42.09846138 20.88299279 -42.16608205 23.32865639 -43 30 C-29.14 30 -15.28 30 -1 30 C-2.00276347 18.80446408 -2.00276347 18.80446408 -8.5625 10.625 C-18.49555575 4.00296284 -31.29610843 7.32026192 -38.62109375 15.8984375 Z " fill="#000000" transform="translate(396,126)"/>
<path d="M0 0 C6.54419544 4.11720905 10.45029059 10.02944579 12.375 17.4375 C13.15811539 21.52452446 13.49744999 25.37580329 13.48852539 29.53466797 C13.48841209 31.30582474 13.48841209 31.30582474 13.48829651 33.11276245 C13.48313522 34.37234772 13.47797394 35.63193298 13.47265625 36.9296875 C13.4712413 38.23076447 13.46982635 39.53184143 13.46836853 40.87234497 C13.46456844 44.31479853 13.45475983 47.75720925 13.44366455 51.199646 C13.43339625 54.71902894 13.42885934 58.23841887 13.42382812 61.7578125 C13.41313509 68.65106094 13.39555886 75.54427399 13.375 82.4375 C8.425 82.4375 3.475 82.4375 -1.625 82.4375 C-1.63958252 80.79346191 -1.65416504 79.14942383 -1.66918945 77.45556641 C-1.72740293 71.32384086 -1.80463478 65.19247369 -1.88745117 59.06103516 C-1.92059222 56.41330811 -1.9486574 53.76551226 -1.97143555 51.11767578 C-2.00518017 47.29950794 -2.05750788 43.48196457 -2.11328125 39.6640625 C-2.11967117 38.49074371 -2.1260611 37.31742493 -2.13264465 36.10855103 C-2.25394602 29.24254185 -2.77617118 22.77656327 -5.625 16.4375 C-9.80257268 12.68678148 -14.09227979 12.88548498 -19.48046875 13.01171875 C-24.47254414 13.68766436 -28.42451274 15.73609968 -32.625 18.4375 C-33.3182135 18.83858475 -34.011427 19.23966949 -34.72564697 19.65290833 C-36.87347583 21.3222247 -36.87347583 21.3222247 -37.14398193 24.11405945 C-37.15286438 25.19105606 -37.16174683 26.26805267 -37.17089844 27.37768555 C-37.20047638 29.20924446 -37.20047638 29.20924446 -37.23065186 31.07780457 C-37.23249481 33.05602959 -37.23249481 33.05602959 -37.234375 35.07421875 C-37.24935513 36.43758614 -37.26608194 37.80093538 -37.28448486 39.16426086 C-37.32819063 42.74977445 -37.34816416 46.33504327 -37.36322021 49.92077637 C-37.38278004 53.58079523 -37.42475115 57.24054928 -37.46484375 60.90039062 C-37.54018082 68.07938941 -37.58837887 75.2581802 -37.625 82.4375 C-42.575 82.4375 -47.525 82.4375 -52.625 82.4375 C-52.625 55.3775 -52.625 28.3175 -52.625 0.4375 C-47.675 0.4375 -42.725 0.4375 -37.625 0.4375 C-37.295 2.7475 -36.965 5.0575 -36.625 7.4375 C-35.97273438 6.95539063 -35.32046875 6.47328125 -34.6484375 5.9765625 C-33.77445313 5.34492188 -32.90046875 4.71328125 -32 4.0625 C-31.14148438 3.43601562 -30.28296875 2.80953125 -29.3984375 2.1640625 C-21.52719231 -2.73606479 -8.63670691 -3.89990835 0 0 Z " fill="#000000" transform="translate(262.625,303.5625)"/>
<path d="M0 0 C4.95 0 9.9 0 15 0 C15 31.68 15 63.36 15 96 C31.17 96 47.34 96 64 96 C64 100.62 64 105.24 64 110 C42.88 110 21.76 110 0 110 C0 73.7 0 37.4 0 0 Z " fill="#000000" transform="translate(103,97)"/>
<path d="M0 0 C5.28 0 10.56 0 16 0 C18.88673272 7.0870116 21.54809425 14.21882802 24.07421875 21.44140625 C24.83134944 23.59180771 25.58851178 25.74219802 26.34570312 27.89257812 C27.52505158 31.25009835 28.70343997 34.60795287 29.88110352 37.96606445 C31.02642143 41.22952344 32.17515165 44.49176585 33.32421875 47.75390625 C33.85543587 49.27402061 33.85543587 49.27402061 34.39738464 50.82484436 C34.72475113 51.75348801 35.05211761 52.68213165 35.3894043 53.63891602 C35.67712204 54.4592482 35.96483978 55.27958038 36.26127625 56.12477112 C36.84886271 57.98177181 36.84886271 57.98177181 38 59 C38.24834091 58.29034088 38.49668182 57.58068176 38.75254822 56.84951782 C41.09077854 50.16854465 43.43027948 43.48801813 45.77121639 36.80799294 C46.97472853 33.37354361 48.17774497 29.93892232 49.37963867 26.50390625 C50.53909307 23.19023982 51.69983634 19.87702752 52.86148262 16.56412888 C53.52101711 14.68211588 54.17920866 12.79963244 54.83738708 10.91714478 C55.23772659 9.77611298 55.6380661 8.63508118 56.05053711 7.45947266 C56.40361435 6.451315 56.75669159 5.44315735 57.12046814 4.40444946 C58 2 58 2 59 0 C64.28 0 69.56 0 75 0 C69.31958676 16.64278899 63.13881832 33.08897529 56.91571045 49.53399658 C55.84734609 52.35924511 54.7816227 55.18548676 53.71592903 58.01174355 C52.68567643 60.74347089 51.65428628 63.47476751 50.62249374 66.20591354 C50.13184071 67.50481322 49.64143342 68.80380575 49.15127945 70.10289383 C48.47320315 71.89924999 47.79352683 73.69500193 47.11376953 75.49072266 C46.72851105 76.50961578 46.34325256 77.52850891 45.94631958 78.57827759 C45 81 45 81 44 83 C39.71 83 35.42 83 31 83 C28.38492048 77.22444055 25.95254241 71.4397843 23.75 65.49609375 C23.45485001 64.70675949 23.15970001 63.91742523 22.85560608 63.10417175 C21.90106207 60.54960372 20.95042154 57.99360433 20 55.4375 C19.33805495 53.66250601 18.67586144 51.88760465 18.01342773 50.11279297 C17.00294309 47.40536136 15.9926729 44.69785201 14.98350525 41.9899292 C12.7861648 36.09578634 10.5728123 30.20791192 8.34765625 24.32421875 C7.78574437 22.83604264 7.2238937 21.34784341 6.66210938 19.85961914 C5.86716678 17.75373596 5.07131897 15.64822336 4.2722168 13.54391479 C3.54442699 11.62674279 2.82092104 9.70794617 2.09765625 7.7890625 C1.69039307 6.71350098 1.28312988 5.63793945 0.86352539 4.52978516 C0 2 0 2 0 0 Z " fill="#000000" transform="translate(260,124)"/>
<path d="M0 0 C4.95 0 9.9 0 15 0 C15 31.68 15 63.36 15 96 C31.17 96 47.34 96 64 96 C64 100.29 64 104.58 64 109 C42.88 109 21.76 109 0 109 C0 73.03 0 37.06 0 0 Z " fill="#000000" transform="translate(103,277)"/>
<path d="M0 0 C4.62 0 9.24 0 14 0 C14 27.06 14 54.12 14 82 C9.38 82 4.76 82 0 82 C0 54.94 0 27.88 0 0 Z " fill="#000000" transform="translate(177,304)"/>
<path d="M0 0 C5.61 0 11.22 0 17 0 C17 4.95 17 9.9 17 15 C11.39 15 5.78 15 0 15 C0 10.05 0 5.1 0 0 Z " fill="#000000" transform="translate(176,277)"/>
</svg>
