<svg width="117" height="47" viewBox="0 0 117 47" fill="none" xmlns="http://www.w3.org/2000/svg">
<g filter="url(#filter0_d_22_253)">
<path d="M42.5265 36.3811C38.3622 35.5865 49.658 34.1705 49.5179 32.0527C49.5027 31.8228 49.3226 31.6458 49.0172 31.5157M49.0172 31.5157C46.5094 30.447 35.5544 32.5336 38.102 34.3553C39.8826 35.6285 45.2699 33.6453 49.0172 31.5157ZM49.0172 31.5157C51.2845 30.2272 52.9514 28.8852 52.8562 28.1783C52.8378 28.0419 52.6865 27.9189 52.4242 27.8094M52.4242 27.8094C49.0813 26.4132 27.7101 27.1995 33.7322 30.166C38.524 32.5266 48.0448 30.3352 52.4242 27.8094ZM52.4242 27.8094C53.9804 26.9119 54.8873 25.9721 54.7023 25.1794C54.6038 24.7577 54.0867 24.515 53.2689 24.4069M53.2689 24.4069C50.7584 24.0752 45.4141 25.0116 40.6441 25.9286M53.2689 24.4069C50.3652 24.9579 45.2124 25.4634 40.6441 25.9286M53.2689 24.4069C54.8702 24.1031 55.7875 23.7854 55.5456 23.4529C55.396 23.2472 54.9233 23.0532 54.2062 22.8796M40.6441 25.9286C35.8279 26.8544 31.5972 27.7604 31.4599 27.3212C31.3284 26.9006 35.6349 26.4387 40.6441 25.9286ZM54.2062 22.8796C52.5254 22.4726 49.502 22.1776 46.1483 22.1063M54.2062 22.8796C47.5763 24.965 27.6875 28.0653 30.4459 24.8377C31.0455 24.1361 32.2132 23.5908 33.7303 23.1777M54.2062 22.8796C55.534 22.4619 56.3299 22.085 56.3057 21.8077C56.2488 21.1579 51.5969 21.5654 46.1483 22.1063M46.1483 22.1063C41.8377 22.0146 36.9815 22.2926 33.7303 23.1777M46.1483 22.1063C41.8915 22.5288 37.1483 23.0329 33.7303 23.1777M33.7303 23.1777C30.3358 23.3216 28.2483 23.1112 29.2425 22.1149C30.1921 21.1633 32.9176 20.3357 36.306 19.6782M36.306 19.6782C44.609 18.067 56.8925 17.4766 56.7822 18.5829C56.6779 19.6289 44.5553 19.9404 36.306 19.6782ZM36.306 19.6782C32.2698 19.5499 29.1608 19.2842 28.8407 18.9C27.8663 17.7307 56.8003 17.0267 56.8084 16.329C56.8165 15.6314 29.0042 19.0055 28.8625 17.0218C28.8284 16.544 29.2881 16.0528 30.0647 15.6176M30.0647 15.6176C32.5121 14.2465 38.1071 13.4326 41.3139 15.3513C45.1423 17.6419 33.3969 17.9279 30.0647 15.6176ZM30.0647 15.6176C29.72 15.3786 29.4653 15.1119 29.3272 14.8166C27.8543 11.6676 38.397 13.6674 38.3489 13.0777C38.3009 12.488 29.9877 12.2873 32.3842 11.7069M56.7084 16.2256C56.5997 15.9205 55.2676 15.585 53.4451 15.2847M53.4451 15.2847C49.0372 14.5583 41.7605 14.0381 41.9859 14.6528C42.2293 15.3163 49.4873 15.5785 53.4451 15.2847ZM53.4451 15.2847C54.6697 15.1938 55.5784 15.0497 55.8655 14.8477C57.0806 13.9932 44.0944 14.9486 43.4653 12.9089C42.8363 10.8692 55.2472 14.2911 54.9314 12.8779C54.6155 11.4647 44.9949 12.2419 47.0506 10.3413M4.58984 37.9154H24.4569L24.676 36.7462H5.97763L11.9669 0.5H10.7983L7.69407 19.2077L4.58984 37.9154ZM85.5186 9.85385L70.8375 37.9154H69.2306L63.8987 9.85385H65.0673L70.1436 36.4538H70.2897L84.2039 9.85385H85.5186ZM97.867 38.5C95.408 38.5 93.3689 37.8606 91.7499 36.5817C90.1308 35.3029 88.9987 33.5673 88.3535 31.375C87.7083 29.1827 87.617 26.7103 88.0796 23.9577C88.5422 21.2051 89.4613 18.7327 90.8369 16.5404C92.2125 14.3481 93.8802 12.6125 95.8401 11.3337C97.8001 10.0548 99.8878 9.41539 102.103 9.41539C103.735 9.41539 105.183 9.76858 106.449 10.475C107.727 11.1692 108.78 12.1314 109.608 13.3615C110.448 14.5795 111.026 15.9923 111.343 17.6C111.659 19.1955 111.672 20.9006 111.379 22.7154L111.16 23.8846H88.6639L88.883 22.7154H110.211C110.576 20.4744 110.46 18.4404 109.864 16.6135C109.28 14.7744 108.312 13.3128 106.961 12.2288C105.621 11.1327 104.002 10.5846 102.103 10.5846C100.18 10.5846 98.3296 11.1571 96.5523 12.3019C94.775 13.4468 93.2411 15.0058 91.9507 16.9788C90.6603 18.9519 89.7839 21.1808 89.3213 23.6654L89.2483 23.7385C88.8344 26.1987 88.877 28.458 89.3761 30.5163C89.8752 32.5747 90.8369 34.225 92.2612 35.4673C93.6855 36.7096 95.5784 37.3308 97.9401 37.3308C99.6443 37.3308 101.142 37.0263 102.432 36.4173C103.735 35.8083 104.818 35.108 105.682 34.3163C106.559 33.5247 107.216 32.8487 107.654 32.2885L108.458 32.9461C107.947 33.6526 107.21 34.4381 106.248 35.3029C105.287 36.1676 104.106 36.9167 102.706 37.55C101.306 38.1833 99.693 38.5 97.867 38.5Z" stroke="white" shape-rendering="crispEdges"/>
</g>
<defs>
<filter id="filter0_d_22_253" x="0" y="0" width="116.09" height="47" filterUnits="userSpaceOnUse" color-interpolation-filters="sRGB">
<feFlood flood-opacity="0" result="BackgroundImageFix"/>
<feColorMatrix in="SourceAlpha" type="matrix" values="0 0 0 0 0 0 0 0 0 0 0 0 0 0 0 0 0 0 127 0" result="hardAlpha"/>
<feOffset dy="4"/>
<feGaussianBlur stdDeviation="2"/>
<feComposite in2="hardAlpha" operator="out"/>
<feColorMatrix type="matrix" values="0 0 0 0 0 0 0 0 0 0 0 0 0 0 0 0 0 0 0.25 0"/>
<feBlend mode="normal" in2="BackgroundImageFix" result="effect1_dropShadow_22_253"/>
<feBlend mode="normal" in="SourceGraphic" in2="effect1_dropShadow_22_253" result="shape"/>
</filter>
</defs>
</svg>
